<svg xmlns="http://www.w3.org/2000/svg" viewBox="0 0 142.822 30">
  <defs>
    <style>
      .cls-1 {
        fill: #020000;
        fill-rule: evenodd;
      }
    </style>
  </defs>
  <g id="LOGO-BLACK" transform="translate(0.035)">
    <path id="Path_171" data-name="Path 171" d="M17.462.705V0H18V.705h.788v.539H18v.664h.747v.539h-.622v.622h.664V3.61h-.664v.83h.041a8.616,8.616,0,0,0,2.282.166,8.05,8.05,0,0,0,1.12-.041l-.083.581h-.913A8.843,8.843,0,0,1,17.835,4.9a1.676,1.676,0,0,1-.705-.622,5.876,5.876,0,0,1-.29.913l-.415-.373A8.342,8.342,0,0,0,16.8,2.7l.5.041c0,.29-.041.581-.041.83a4.346,4.346,0,0,0,.332.456V2.448h-.954V1.909h.83V1.245h-.788V.705Zm1.494.083V.249h2.49a5.2,5.2,0,0,1-.166,1.826.563.563,0,0,1-.539.29,2.036,2.036,0,0,1-.456-.041l-.166-.5c.166,0,.332.041.456.041a.19.19,0,0,0,.207-.166,4.337,4.337,0,0,0,.041-.913h-.664a3.037,3.037,0,0,1-.29.871,2.412,2.412,0,0,1-.705.747l-.373-.5a2.471,2.471,0,0,0,.581-.539A4.83,4.83,0,0,0,19.62.747h-.664Zm2.365,1.784V4.4H19.08V2.573Zm-.5.5h-1.2V3.9h1.2Zm3.485.249-.456.124-.041-.207a11.373,11.373,0,0,1-1.535.332l-.124-.5A.868.868,0,0,0,22.4,2.9a4.043,4.043,0,0,0,.664-.83c-.249.041-.539.083-.788.124l-.124-.5a1.1,1.1,0,0,0,.249-.207A11.771,11.771,0,0,0,23.064.041L23.6.249c-.332.581-.581,1.037-.83,1.411.207-.041.373-.041.581-.083.124-.207.249-.415.373-.664l.5.207a11.456,11.456,0,0,1-1.286,1.867c.249-.083.5-.124.747-.207-.041-.166-.083-.29-.124-.456l.456-.166C24.1,2.531,24.184,2.9,24.308,3.32Zm-1.535.5A5.558,5.558,0,0,1,22.566,5.1l-.5-.166a4.827,4.827,0,0,0,.207-1.2Zm.788,1-.5.124c-.041-.456-.083-.83-.124-1.162l.456-.083C23.437,4.025,23.52,4.4,23.562,4.813Zm.622-.622A9.56,9.56,0,0,0,24.6,1.2V.747h-.415V.166h2.49V.539c-.083.456-.166.871-.249,1.2h.622v.332a5.147,5.147,0,0,1-.664,1.95,7.953,7.953,0,0,0,.913.747l-.373.5a8.819,8.819,0,0,1-.913-.747,3.293,3.293,0,0,1-1.12.83l-.29-.5a4.025,4.025,0,0,0,1.037-.788,5.924,5.924,0,0,1-.622-1.12,5.473,5.473,0,0,1-.747,2.324L23.852,4.9l.249-.5-.332.166c-.083-.29-.166-.539-.249-.788l.415-.124A1.087,1.087,0,0,1,24.184,4.191Zm2.324-1.95h-.747c.083-.332.207-.871.332-1.535h-.954v.913a3.994,3.994,0,0,0,.871,1.95A4.207,4.207,0,0,0,26.508,2.241Zm6.349.041v.581h-5.1V2.282Zm2.2-2.033a6.125,6.125,0,0,1-.5,1.2V5.27h-.581V2.324a6.382,6.382,0,0,0-.5.539l-.207-.622A5.837,5.837,0,0,0,34.474,0Zm3.361,4.979h-.539V4.9H35.595v.332h-.539V.166h3.319V5.228Zm-.539-.83V.705H35.595V4.4ZM36.508,1.452V.913h.5v.539h.705v.5h-.705V2.49h.539v1.66H35.968V2.49h.539V1.95H35.8v-.5Zm.581,1.494h-.664v.788h.664Z" transform="translate(3.292)"/>
    <g id="Group_245" data-name="Group 245" transform="translate(48.845 0.041)">
      <path id="Path_172" data-name="Path 172" d="M41.072,4.862l-.373-.5a6.566,6.566,0,0,0,3.319-3.2h-2.7V.588h3.154l.373.249a7.641,7.641,0,0,1-1.079,1.909c.332.249.664.456.954.664a7.159,7.159,0,0,1,1.12,1l-.5.415a8.726,8.726,0,0,0-1.079-.954c-.29-.207-.581-.415-.913-.664A6.908,6.908,0,0,1,41.072,4.862Z" transform="translate(-40.698 0.076)"/>
      <path id="Path_173" data-name="Path 173" d="M50.028,1.936v.581H45.712V1.936Z" transform="translate(-39.696 0.346)"/>
      <path id="Path_174" data-name="Path 174" d="M52,.864a8.723,8.723,0,0,1-.456,2.116,7.059,7.059,0,0,1-1,1.826l-.581-.29a7.03,7.03,0,0,0,1-1.7A6.328,6.328,0,0,0,51.376.781Zm2.49,1.66a13.022,13.022,0,0,1,.747,2.116l-.622.124a11.91,11.91,0,0,0-.705-2.033,18.1,18.1,0,0,0-1-1.826l.539-.29A16.407,16.407,0,0,1,54.488,2.524ZM55.069.2a.533.533,0,0,1,.166.415.533.533,0,0,1-.166.415.533.533,0,0,1-.415.166.481.481,0,0,1-.415-.166.533.533,0,0,1-.166-.415A.481.481,0,0,1,54.239.2a.6.6,0,0,1,.83,0ZM54.447.45a.317.317,0,0,0-.083.207c0,.083.041.124.083.207a.317.317,0,0,0,.207.083c.083,0,.124-.041.207-.083a.317.317,0,0,0,.083-.207c0-.083-.041-.124-.083-.207a.317.317,0,0,0-.207-.083C54.571.367,54.488.367,54.447.45Z" transform="translate(-38.845 -0.035)"/>
      <path id="Path_175" data-name="Path 175" d="M59.4,1.936v.581H55.083V1.936Z" transform="translate(-37.822 0.346)"/>
      <path id="Path_176" data-name="Path 176" d="M63.624.484,64,.692a5.067,5.067,0,0,1-.622,2.531,3.808,3.808,0,0,1-2.033,1.618l-.373-.5A3.932,3.932,0,0,0,62.711,3.1a3.633,3.633,0,0,0,.664-2.075H60.512v1.2h-.622V.484Z" transform="translate(-36.86 0.055)"/>
      <path id="Path_177" data-name="Path 177" d="M66.466,1.535l-.415.5A18.321,18.321,0,0,0,64.35.954l.29-.539A12.77,12.77,0,0,1,66.466,1.535Zm2.573-.083a6.234,6.234,0,0,1-1.577,2.2A5.39,5.39,0,0,1,64.931,4.9l-.29-.539A5.587,5.587,0,0,0,66.964,3.2,5.057,5.057,0,0,0,68.458,1.2Z" transform="translate(-35.968 0.041)"/>
    </g>
    <g id="Group_246" data-name="Group 246" transform="translate(-0.035 1.12)">
      <path id="Path_178" data-name="Path 178" d="M72.953,7.531h4.232V9.813A5.344,5.344,0,0,1,79.136,7.9a5.112,5.112,0,0,1,2.448-.622,7.685,7.685,0,0,1,1.037.041c.29.041.5.083.705.124l-.539,3.942a7.631,7.631,0,0,0-1.826-.207,4.767,4.767,0,0,0-1.369.166,3.332,3.332,0,0,0-1.2.622,3.036,3.036,0,0,0-.83,1.12,3.381,3.381,0,0,0-.249,1.286V23.8H72.953V7.531Zm-6.39,6.307a3.871,3.871,0,0,0-.83-2.614,3.258,3.258,0,0,0-2.573-.954,3.622,3.622,0,0,0-1.535.29,4.4,4.4,0,0,0-1.12.747,3.935,3.935,0,0,0-.705,1.12,4.721,4.721,0,0,0-.29,1.369h7.054Zm4.025,4.855a6.442,6.442,0,0,1-2.2,4.149,8,8,0,0,1-5.145,1.411q-4.046,0-6.1-2.241a9.052,9.052,0,0,1-2.033-6.349,11.05,11.05,0,0,1,.581-3.651,8.2,8.2,0,0,1,1.66-2.739,6.81,6.81,0,0,1,2.573-1.7,9.446,9.446,0,0,1,3.319-.581,7.112,7.112,0,0,1,5.643,2.158,8.572,8.572,0,0,1,1.867,5.809V16.7H59.468a4.85,4.85,0,0,0,1,3.071,3.482,3.482,0,0,0,2.822,1.12c1.743,0,2.739-.747,3.071-2.2h4.232Zm-28.921-2.9a10.144,10.144,0,0,0,.249,2.531,3.12,3.12,0,0,0,.871,1.535,3.316,3.316,0,0,0,1.245.747,4.565,4.565,0,0,0,1.286.166,3.006,3.006,0,0,0,1.369-.29,2.926,2.926,0,0,0,1.12-.871,4.3,4.3,0,0,0,.747-1.577,7.727,7.727,0,0,0,.29-2.324A9.973,9.973,0,0,0,48.6,13.3a3.986,3.986,0,0,0-.747-1.577,2.509,2.509,0,0,0-1.12-.871A3.655,3.655,0,0,0,45.36,10.6a4.81,4.81,0,0,0-1.411.207,3.8,3.8,0,0,0-1.162.705,3.924,3.924,0,0,0-.913,1.494,7.376,7.376,0,0,0-.29,2.324v.456ZM37.31,7.531h4.232V9.689a5.881,5.881,0,0,1,5.1-2.656,5.967,5.967,0,0,1,5.1,2.324,10.533,10.533,0,0,1,1.7,6.307,11.877,11.877,0,0,1-.5,3.527,8.152,8.152,0,0,1-1.411,2.739A6.552,6.552,0,0,1,49.3,23.672a6.948,6.948,0,0,1-5.353.166A5.337,5.337,0,0,1,41.708,22.1v7.718h-4.4Zm-17.386,0h4.357V17.656a3.37,3.37,0,0,0,.622,2.365,2.321,2.321,0,0,0,1.7.622,3.1,3.1,0,0,0,1.369-.249,4.176,4.176,0,0,0,1.037-.705,3.276,3.276,0,0,0,.788-1.037,2.834,2.834,0,0,0,.29-1.328V7.531h4.357V23.8H30.3V21.556a6.186,6.186,0,0,1-2.241,2.075,5.526,5.526,0,0,1-2.7.664,5.216,5.216,0,0,1-4.066-1.452,6.662,6.662,0,0,1-1.328-4.564V7.531Zm-15.228,9a4.054,4.054,0,0,0,1.328,2.988,5.408,5.408,0,0,0,3.444.954,5.7,5.7,0,0,0,1.826-.249,3.628,3.628,0,0,0,1.2-.622,2,2,0,0,0,.664-.913,3.6,3.6,0,0,0,.207-1.162,2.329,2.329,0,0,0-.664-1.618,4.488,4.488,0,0,0-2.407-1.12l-2.9-.539a16.686,16.686,0,0,1-3.029-.83,7.222,7.222,0,0,1-2.116-1.286,5.521,5.521,0,0,1-1.369-1.95A7.555,7.555,0,0,1,.422,7.448a6.142,6.142,0,0,1,.622-2.822A5.613,5.613,0,0,1,2.828,2.593,8.335,8.335,0,0,1,5.567,1.349,13.38,13.38,0,0,1,9.053.934a12.6,12.6,0,0,1,4.066.581,7.215,7.215,0,0,1,2.614,1.494,6.163,6.163,0,0,1,1.494,2.116,9.045,9.045,0,0,1,.622,2.531l-4.4.581a4.357,4.357,0,0,0-1.328-2.656,4.664,4.664,0,0,0-2.988-.83,8.235,8.235,0,0,0-1.95.207A4.324,4.324,0,0,0,5.941,5.5a1.618,1.618,0,0,0-.664.747,2.261,2.261,0,0,0-.207.913,2.407,2.407,0,0,0,.705,1.867,4.882,4.882,0,0,0,2.365.954l3.071.581a10.734,10.734,0,0,1,5.311,2.324,6.106,6.106,0,0,1,1.7,4.606,6.4,6.4,0,0,1-.539,2.7,6.289,6.289,0,0,1-1.618,2.158,7.947,7.947,0,0,1-2.7,1.452,13.106,13.106,0,0,1-3.817.5c-3.029,0-5.353-.664-6.971-1.95A7.508,7.508,0,0,1-.035,16.494H4.7Z" transform="translate(0.035 -0.934)"/>
    </g>
    <g id="Group_247" data-name="Group 247" transform="translate(80.837 18.714)">
      <circle id="Ellipse_217" data-name="Ellipse 217" cx="2.614" cy="2.614" r="2.614"/>
    </g>
    <path id="Path_179" data-name="Path 179" class="cls-1" d="M124.136,13.838a3.871,3.871,0,0,0-.83-2.614,3.258,3.258,0,0,0-2.573-.954,3.622,3.622,0,0,0-1.535.29,4.4,4.4,0,0,0-1.12.747,3.935,3.935,0,0,0-.705,1.12,4.721,4.721,0,0,0-.29,1.369h7.054Zm4.025,4.855a6.442,6.442,0,0,1-2.2,4.149,8,8,0,0,1-5.145,1.411q-4.046,0-6.1-2.241a9.052,9.052,0,0,1-2.033-6.349,11.05,11.05,0,0,1,.581-3.651,8.2,8.2,0,0,1,1.66-2.739,6.81,6.81,0,0,1,2.573-1.7,9.446,9.446,0,0,1,3.319-.581,7.111,7.111,0,0,1,5.643,2.158,8.572,8.572,0,0,1,1.867,5.809V16.7H117.04a4.85,4.85,0,0,0,1,3.071,3.482,3.482,0,0,0,2.822,1.12c1.743,0,2.739-.747,3.071-2.2h4.232ZM95.878,7.531h4.232V9.772A5.972,5.972,0,0,1,102.393,7.7a5.848,5.848,0,0,1,2.78-.664,5.315,5.315,0,0,1,4.108,1.452c.913.954,1.328,2.49,1.328,4.564V23.8h-4.357V13.631a3.049,3.049,0,0,0-.664-2.324,2.491,2.491,0,0,0-1.743-.622,3.8,3.8,0,0,0-1.452.249,3.934,3.934,0,0,0-1.12.705,3.91,3.91,0,0,0-.747,1.037,2.834,2.834,0,0,0-.29,1.328V23.8H95.878ZM82.849,20.353a5.009,5.009,0,0,0,4.357-1.992,9.665,9.665,0,0,0,1.452-5.685,9.665,9.665,0,0,0-1.452-5.685,5.761,5.761,0,0,0-8.714,0,9.665,9.665,0,0,0-1.452,5.685,9.576,9.576,0,0,0,1.452,5.685A5.009,5.009,0,0,0,82.849,20.353Zm.041,3.983a11.446,11.446,0,0,1-4.44-.83,9.057,9.057,0,0,1-3.32-2.324,10.762,10.762,0,0,1-2.116-3.693,14.9,14.9,0,0,1-.747-4.855,14.551,14.551,0,0,1,.747-4.855,10.761,10.761,0,0,1,2.116-3.693,8.741,8.741,0,0,1,3.361-2.324,11.6,11.6,0,0,1,4.44-.83,11.446,11.446,0,0,1,4.44.83,9.057,9.057,0,0,1,3.32,2.324A10.684,10.684,0,0,1,92.766,7.78a14.921,14.921,0,0,1,.705,4.855,15.741,15.741,0,0,1-.705,4.855,10.055,10.055,0,0,1-2.075,3.693,8.594,8.594,0,0,1-3.319,2.324A11.511,11.511,0,0,1,82.891,24.336Z" transform="translate(14.461 0.187)"/>
  </g>
</svg>
